<svg width="60" height="60" viewBox="0 0 60 60" fill="none" xmlns="http://www.w3.org/2000/svg">
<path d="M50 15H5V5H50V15ZM41.25 30H37.5V42.5L46.525 47.9L48.4 44.85L41.25 40.625V30ZM57.5 40C57.5 49.675 49.675 57.5 40 57.5C34.05 57.5 28.825 54.525 25.65 50H7.5V17.5H47.5V24.2C53.4 27.025 57.5 33.025 57.5 40ZM20 30H25.65C27.075 27.975 28.9 26.25 31.025 25H21.25C20.55 25 20 25.55 20 26.25V30ZM52.5 40C52.5 33.1 46.9 27.5 40 27.5C33.1 27.5 27.5 33.1 27.5 40C27.5 46.9 33.1 52.5 40 52.5C46.9 52.5 52.5 46.9 52.5 40Z" fill="#36454F"/>
</svg>
