<svg width="25" height="25" viewBox="0 0 25 25" fill="none" xmlns="http://www.w3.org/2000/svg">
<g clip-path="url(#clip0_96_1619)">
<path d="M20.8332 18.2292C21.2344 18.2294 21.6202 18.3839 21.9107 18.6609C22.2011 18.9378 22.3738 19.3158 22.3931 19.7166C22.4124 20.1174 22.2767 20.5103 22.0142 20.8138C21.7518 21.1173 21.3826 21.3082 20.9832 21.3469L20.8332 21.3542H4.1665C3.76524 21.354 3.37943 21.1994 3.08902 20.9225C2.79861 20.6456 2.62587 20.2676 2.60658 19.8668C2.5873 19.466 2.72295 19.0731 2.98544 18.7696C3.24792 18.4661 3.61711 18.2752 4.0165 18.2365L4.1665 18.2292H20.8332ZM20.8332 10.9375C21.2476 10.9375 21.645 11.1021 21.938 11.3952C22.231 11.6882 22.3957 12.0856 22.3957 12.5C22.3957 12.9144 22.231 13.3118 21.938 13.6049C21.645 13.8979 21.2476 14.0625 20.8332 14.0625H4.1665C3.7521 14.0625 3.35468 13.8979 3.06165 13.6049C2.76862 13.3118 2.604 12.9144 2.604 12.5C2.604 12.0856 2.76862 11.6882 3.06165 11.3952C3.35468 11.1021 3.7521 10.9375 4.1665 10.9375H20.8332ZM20.8332 3.64584C21.2476 3.64584 21.645 3.81046 21.938 4.10349C22.231 4.39651 22.3957 4.79394 22.3957 5.20834C22.3957 5.62274 22.231 6.02017 21.938 6.3132C21.645 6.60622 21.2476 6.77084 20.8332 6.77084H4.1665C3.7521 6.77084 3.35468 6.60622 3.06165 6.3132C2.76862 6.02017 2.604 5.62274 2.604 5.20834C2.604 4.79394 2.76862 4.39651 3.06165 4.10349C3.35468 3.81046 3.7521 3.64584 4.1665 3.64584H20.8332Z" fill="#36454F"/>
</g>
<defs>
<clipPath id="clip0_96_1619">
<rect width="25" height="25" fill="white"/>
</clipPath>
</defs>
</svg>
