<svg width="42" height="42" viewBox="0 0 42 42" fill="none" xmlns="http://www.w3.org/2000/svg">
<path fill-rule="evenodd" clip-rule="evenodd" d="M0.166748 21.0001C0.166748 9.49383 9.49383 0.166748 21.0001 0.166748C32.5063 0.166748 41.8334 9.49383 41.8334 21.0001C41.8334 32.5063 32.5063 41.8334 21.0001 41.8334C9.49383 41.8334 0.166748 32.5063 0.166748 21.0001ZM17.4438 25.7772C17.2449 25.9693 17.0861 26.1992 16.977 26.4534C16.8678 26.7076 16.8103 26.981 16.8079 27.2576C16.8055 27.5342 16.8582 27.8085 16.963 28.0646C17.0677 28.3206 17.2224 28.5532 17.418 28.7488C17.6136 28.9444 17.8462 29.0991 18.1023 29.2039C18.3583 29.3086 18.6326 29.3613 18.9093 29.3589C19.1859 29.3565 19.4592 29.2991 19.7134 29.1899C19.9676 29.0807 20.1975 28.922 20.3897 28.723L26.6397 22.473C27.0302 22.0823 27.2496 21.5525 27.2496 21.0001C27.2496 20.4477 27.0302 19.9178 26.6397 19.5272L20.3897 13.2772C20.1975 13.0782 19.9676 12.9195 19.7134 12.8103C19.4592 12.7011 19.1859 12.6436 18.9093 12.6412C18.6326 12.6388 18.3583 12.6915 18.1023 12.7963C17.8462 12.901 17.6136 13.0557 17.418 13.2513C17.2224 13.447 17.0677 13.6796 16.963 13.9356C16.8582 14.1916 16.8055 14.466 16.8079 14.7426C16.8103 15.0192 16.8678 15.2926 16.977 15.5468C17.0861 15.8009 17.2449 16.0308 17.4438 16.223L22.2209 21.0001L17.4438 25.7772Z" fill="#E68F50"/>
</svg>
