<svg width="60" height="60" viewBox="0 0 60 60" fill="none" xmlns="http://www.w3.org/2000/svg">
<path d="M47.5 5H12.5C11.1739 5 9.90215 5.52678 8.96447 6.46447C8.02678 7.40215 7.5 8.67392 7.5 10V42.5C7.5 43.8261 8.02678 45.0979 8.96447 46.0355C9.90215 46.9732 11.1739 47.5 12.5 47.5H22.5L30 55L37.5 47.5H47.5C48.8261 47.5 50.0979 46.9732 51.0355 46.0355C51.9732 45.0979 52.5 43.8261 52.5 42.5V10C52.5 8.67392 51.9732 7.40215 51.0355 6.46447C50.0979 5.52678 48.8261 5 47.5 5ZM30 12.5C34.3175 12.5 37.5 15.68 37.5 20C37.5 24.32 34.3175 27.5 30 27.5C25.685 27.5 22.5 24.32 22.5 20C22.5 15.68 25.685 12.5 30 12.5ZM17.9425 40C19.3375 35.6925 24.1825 32.5 30 32.5C35.8175 32.5 40.665 35.6925 42.0575 40H17.9425Z" fill="#36454F"/>
</svg>
