<svg width="50" height="40" viewBox="0 0 50 40" fill="none" xmlns="http://www.w3.org/2000/svg">
<g clip-path="url(#clip0_78_61)">
<path d="M17.5 20C20.1522 20 22.6957 18.9464 24.5711 17.0711C26.4464 15.1957 27.5 12.6522 27.5 10C27.5 7.34784 26.4464 4.8043 24.5711 2.92893C22.6957 1.05357 20.1522 0 17.5 0C14.8478 0 12.3043 1.05357 10.4289 2.92893C8.55357 4.8043 7.5 7.34784 7.5 10C7.5 12.6522 8.55357 15.1957 10.4289 17.0711C12.3043 18.9464 14.8478 20 17.5 20ZM13.9297 23.75C6.23438 23.75 0 29.9844 0 37.6797C0 38.9609 1.03906 40 2.32031 40H25.2188C24.9766 39.3125 24.9297 38.5625 25.1094 37.8281L26.2812 33.1328C26.5 32.25 26.9531 31.4531 27.5938 30.8125L30.7422 27.6641C28.2344 25.2422 24.8281 23.75 21.0625 23.75H13.9297ZM47.9531 18.4141C46.7344 17.1953 44.7578 17.1953 43.5312 18.4141L41.2344 20.7109L46.7812 26.2578L49.0781 23.9609C50.2969 22.7422 50.2969 20.7656 49.0781 19.5391L47.9531 18.4141ZM29.3672 32.5781C29.0469 32.8984 28.8203 33.2969 28.7109 33.7422L27.5391 38.4375C27.4297 38.8672 27.5547 39.3125 27.8672 39.625C28.1797 39.9375 28.625 40.0625 29.0547 39.9531L33.75 38.7812C34.1875 38.6719 34.5938 38.4453 34.9141 38.125L45.0078 28.0234L39.4609 22.4766L29.3672 32.5781Z" fill="#36454F"/>
</g>
<defs>
<clipPath id="clip0_78_61">
<rect width="50" height="40" fill="white"/>
</clipPath>
</defs>
</svg>
