<svg width="34" height="34" viewBox="0 0 34 34" fill="none" xmlns="http://www.w3.org/2000/svg">
<path d="M16.9999 33.6667C26.2049 33.6667 33.6666 26.205 33.6666 17C33.6666 7.79504 26.2049 0.333374 16.9999 0.333374C7.79492 0.333374 0.333252 7.79504 0.333252 17C0.333252 26.205 7.79492 33.6667 16.9999 33.6667ZM19.4999 10.3334C20.0466 11.06 20.4383 11.91 20.6249 12.8334H23.6666V15.3334H20.6249C20.3365 16.7449 19.5693 18.0135 18.4532 18.9246C17.3372 19.8357 15.9407 20.3334 14.4999 20.3334H14.1833L20.3833 26.5334L18.6166 28.3L10.3333 20.0167V17.8334H14.4999C15.2756 17.8336 16.0323 17.5933 16.6657 17.1456C17.2991 16.6978 17.778 16.0647 18.0366 15.3334H10.3333V12.8334H18.0366C17.7778 12.1022 17.2988 11.4692 16.6654 11.0215C16.0321 10.5738 15.2755 10.3334 14.4999 10.3334H10.3333V7.83337H23.6666V10.3334H19.4999Z" fill="#E68F50"/>
</svg>
